STARTFONT 2.1
FONT -Bitstream-Dutch 801-Medium-R-Normal--19-140-100-100-P-146-DEC-DECmath_Symbol
SIZE 14 100 100
FONTBOUNDINGBOX 25 32 -4 -18

STARTPROPERTIES 26
FONTNAME_REGISTRY ""
FAMILY_NAME "Dutch 801"
FOUNDRY "Bitstream"
WEIGHT_NAME "Medium"
SETWIDTH_NAME "Normal"
SLANT "R"
ADD_STYLE_NAME ""
PIXEL_SIZE 19
POINT_SIZE 140
RESOLUTION_X 100
RESOLUTION_Y 100
SPACING "P"
AVERAGE_WIDTH 146
CHARSET_REGISTRY "DEC"
CHARSET_ENCODING "DECmath_Symbol"
CAP_HEIGHT 13
X_HEIGHT 0
CHARSET_COLLECTIONS "DEC-DECmath_Symbol"
FULL_NAME "Dutch 801 Roman DECmath_Symbol"
COPYRIGHT "Copyright 1989 by Bitstream, Inc. and Digital Equipment Corp. All rights reserved."
NOTICE "Dutch 801 is a registered trademark of Bitstream, Inc."
WEIGHT 10
QUAD_WIDTH 12
DEFAULT_CHAR 32
FONT_DESCENT 18
FONT_ASCENT 14
ENDPROPERTIES

CHARS 128

STARTCHAR arrowleft
ENCODING 32
SWIDTH 1000 0
DWIDTH 19 0
BBX 17 7 1 2
BITMAP
040000
180000
600000
FFFF80
600000
180000
040000
ENDCHAR

STARTCHAR arrowright
ENCODING 33
SWIDTH 1000 0
DWIDTH 19 0
BBX 17 7 1 2
BITMAP
001000
000C00
000300
FFFF80
000300
000C00
001000
ENDCHAR

STARTCHAR arrowup
ENCODING 34
SWIDTH 500 0
DWIDTH 10 0
BBX 7 17 2 -4
BITMAP
10
38
38
54
54
92
10
10
10
10
10
10
10
10
10
10
10
ENDCHAR

STARTCHAR arrowdown
ENCODING 35
SWIDTH 500 0
DWIDTH 10 0
BBX 7 17 2 -4
BITMAP
10
10
10
10
10
10
10
10
10
10
10
92
54
54
38
38
10
ENDCHAR

STARTCHAR arrowboth
ENCODING 36
SWIDTH 1000 0
DWIDTH 19 0
BBX 17 7 1 2
BITMAP
041000
180C00
600300
FFFF80
600300
180C00
041000
ENDCHAR

STARTCHAR arrownortheast
ENCODING 37
SWIDTH 1000 0
DWIDTH 19 0
BBX 17 17 1 -4
BITMAP
000180
000F80
003B00
000500
000B00
001200
002200
004000
008000
010000
020000
040000
080000
100000
200000
400000
800000
ENDCHAR

STARTCHAR arrowsoutheast
ENCODING 38
SWIDTH 1000 0
DWIDTH 19 0
BBX 17 17 1 -4
BITMAP
800000
400000
200000
100000
080000
040000
020000
010000
008000
004000
002200
001200
000B00
000500
003B00
000F80
000180
ENDCHAR

STARTCHAR similarequal
ENCODING 39
SWIDTH 1000 0
DWIDTH 19 0
BBX 12 5 4 3
BITMAP
7C10
83E0
0000
0000
FFF0
ENDCHAR

STARTCHAR arrowdblleft
ENCODING 40
SWIDTH 1000 0
DWIDTH 19 0
BBX 17 7 1 2
BITMAP
100000
200000
7FFF80
C00000
7FFF80
200000
100000
ENDCHAR

STARTCHAR arrowdblright
ENCODING 41
SWIDTH 1000 0
DWIDTH 19 0
BBX 17 7 1 2
BITMAP
000400
000200
FFFF00
000180
FFFF00
000200
000400
ENDCHAR

STARTCHAR arrowdblup
ENCODING 42
SWIDTH 500 0
DWIDTH 10 0
BBX 7 18 2 -5
BITMAP
10
38
6C
AA
28
28
28
28
28
28
28
28
28
28
28
28
28
28
ENDCHAR

STARTCHAR arrowdbldown
ENCODING 43
SWIDTH 500 0
DWIDTH 10 0
BBX 7 18 2 -5
BITMAP
28
28
28
28
28
28
28
28
28
28
28
28
28
28
AA
6C
38
10
ENDCHAR

STARTCHAR arrowdblboth
ENCODING 44
SWIDTH 1000 0
DWIDTH 19 0
BBX 17 7 1 2
BITMAP
100400
200200
7FFF00
C00180
7FFF00
200200
100400
ENDCHAR

STARTCHAR arrownorthwest
ENCODING 45
SWIDTH 1000 0
DWIDTH 19 0
BBX 17 17 1 -4
BITMAP
C00000
F80000
6E0000
500000
680000
240000
220000
010000
008000
004000
002000
001000
000800
000400
000200
000100
000080
ENDCHAR

STARTCHAR arrowsouthwest
ENCODING 46
SWIDTH 1000 0
DWIDTH 19 0
BBX 17 17 1 -4
BITMAP
000080
000100
000200
000400
000800
001000
002000
004000
008000
010000
220000
240000
680000
500000
6E0000
F80000
C00000
ENDCHAR

STARTCHAR proportional
ENCODING 47
SWIDTH 1000 0
DWIDTH 19 0
BBX 11 7 4 2
BITMAP
38E0
4580
8300
8200
8600
4D00
38E0
ENDCHAR

STARTCHAR prime
ENCODING 48
SWIDTH 278 0
DWIDTH 5 0
BBX 3 8 1 3
BITMAP
60
60
60
40
C0
80
80
80
ENDCHAR

STARTCHAR infinity
ENCODING 49
SWIDTH 833 0
DWIDTH 16 0
BBX 13 7 2 2
BITMAP
38E0
4590
8308
8208
8608
4D10
38E0
ENDCHAR

STARTCHAR element
ENCODING 50
SWIDTH 1000 0
DWIDTH 19 0
BBX 13 11 3 0
BITMAP
0FF8
3000
4000
4000
8000
FFF8
8000
4000
4000
3000
0FF8
ENDCHAR

STARTCHAR suchthat
ENCODING 51
SWIDTH 1000 0
DWIDTH 19 0
BBX 13 11 3 0
BITMAP
FF80
0060
0010
0010
0008
FFF8
0008
0010
0010
0060
FF80
ENDCHAR

STARTCHAR trianglelgup
ENCODING 52
SWIDTH 1000 0
DWIDTH 19 0
BBX 15 15 2 -1
BITMAP
0100
0100
0280
0280
0440
0440
0820
0820
1010
1010
2008
2008
4004
4004
FFFE
ENDCHAR

STARTCHAR trianglelgdown
ENCODING 53
SWIDTH 1000 0
DWIDTH 19 0
BBX 15 15 2 -4
BITMAP
FFFE
4004
4004
2008
2008
1010
1010
0820
0820
0440
0440
0280
0280
0100
0100
ENDCHAR

STARTCHAR slashnegate
ENCODING 54
SWIDTH 0 0
DWIDTH 10 0
BBX 8 19 1 -5
BITMAP
01
01
02
02
04
04
04
08
08
10
10
10
20
20
40
40
40
80
80
ENDCHAR

STARTCHAR mapsto
ENCODING 55
SWIDTH 0 0
DWIDTH 2 0
BBX 3 7 0 2
BITMAP
80
80
80
E0
80
80
80
ENDCHAR

STARTCHAR universal
ENCODING 56
SWIDTH 637 0
DWIDTH 12 0
BBX 12 15 0 -2
BITMAP
C030
C030
C030
6060
7FE0
3FC0
30C0
30C0
1980
1980
1980
0900
0F00
0600
0600
ENDCHAR

STARTCHAR existential
ENCODING 57
SWIDTH 639 0
DWIDTH 12 0
BBX 10 15 1 -2
BITMAP
FFC0
FFC0
00C0
00C0
00C0
00C0
7FC0
7FC0
00C0
00C0
00C0
00C0
00C0
FFC0
FFC0
ENDCHAR

STARTCHAR logicalnot
ENCODING 58
SWIDTH 833 0
DWIDTH 16 0
BBX 11 4 3 3
BITMAP
FFE0
0020
0020
0020
ENDCHAR

STARTCHAR emptyset
ENCODING 59
SWIDTH 500 0
DWIDTH 10 0
BBX 9 16 1 -2
BITMAP
0100
1D00
2200
6300
4500
C580
C580
C980
C980
D180
D180
5100
6300
2200
5C00
4000
ENDCHAR

STARTCHAR Rfraktur
ENCODING 60
SWIDTH 794 0
DWIDTH 14 0
BBX 13 14 0 -1
BITMAP
38E0
4F60
4E30
2630
2618
9638
97E0
6660
0660
0660
2660
2660
1E28
0430
ENDCHAR

STARTCHAR Ifraktur
ENCODING 61
SWIDTH 699 0
DWIDTH 14 0
BBX 12 15 1 -1
BITMAP
1E00
2F90
43D0
40F0
4000
2030
1840
0060
0060
0030
0030
7810
9C10
8F20
03C0
ENDCHAR

STARTCHAR latticetop
ENCODING 62
SWIDTH 778 0
DWIDTH 15 0
BBX 13 14 1 -2
BITMAP
FFF8
0200
0200
0200
0200
0200
0200
0200
0200
0200
0200
0200
0200
0200
ENDCHAR

STARTCHAR latticebot
ENCODING 63
SWIDTH 778 0
DWIDTH 15 0
BBX 13 14 1 -2
BITMAP
0200
0200
0200
0200
0200
0200
0200
0200
0200
0200
0200
0200
0200
FFF8
ENDCHAR

STARTCHAR aleph
ENCODING 64
SWIDTH 602 0
DWIDTH 12 0
BBX 10 13 1 -1
BITMAP
8100
C180
C1C0
60C0
7140
3A00
5C00
4E00
C300
C180
E180
60C0
C080
ENDCHAR

STARTCHAR Acursive
ENCODING 65
SWIDTH 630 0
DWIDTH 12 0
BBX 13 16 -3 -3
BITMAP
0018
0018
0038
0038
0058
0050
00B0
00B0
0130
03F0
2660
4468
4870
D020
E000
C000
ENDCHAR

STARTCHAR Bcursive
ENCODING 66
SWIDTH 613 0
DWIDTH 12 0
BBX 13 14 -1 -1
BITMAP
0418
1C78
2D98
0F30
0A20
0C40
1880
1F80
31C0
28C0
6840
4C40
CF80
8700
ENDCHAR

STARTCHAR Ccursive
ENCODING 67
SWIDTH 546 0
DWIDTH 11 0
BBX 12 14 0 -1
BITMAP
0070
01F0
0330
0420
0840
1080
2300
6000
4000
C080
C100
E600
FC00
7800
ENDCHAR

STARTCHAR Dcursive
ENCODING 68
SWIDTH 722 0
DWIDTH 14 0
BBX 15 15 -1 -2
BITMAP
03E0
0F78
109C
310C
3306
2206
4606
0406
0C04
080C
1808
1030
7FE0
7F80
8000
ENDCHAR

STARTCHAR Ecursive
ENCODING 69
SWIDTH 535 0
DWIDTH 10 0
BBX 11 14 0 -1
BITMAP
00C0
03E0
0C60
18C0
1800
1C00
0F80
1800
2000
6080
4100
E600
FC00
7800
ENDCHAR

STARTCHAR Fcursive
ENCODING 70
SWIDTH 558 0
DWIDTH 11 0
BBX 11 14 1 -1
BITMAP
0E00
1FE0
2180
4100
0300
0300
1600
7F00
0400
0C00
4800
5800
F000
6000
ENDCHAR

STARTCHAR Gcursive
ENCODING 71
SWIDTH 595 0
DWIDTH 12 0
BBX 12 18 0 -5
BITMAP
00E0
0370
0620
0C60
18C0
3000
20A0
63C0
C0C0
C180
C380
E500
FB00
7200
0400
2800
3800
3000
ENDCHAR

STARTCHAR Hcursive
ENCODING 72
SWIDTH 722 0
DWIDTH 14 0
BBX 18 15 -4 -2
BITMAP
002040
01E180
006180
00C300
00C300
00C300
018600
07FF80
018600
030600
030C00
060D00
0E0E00
9C1C00
700800
ENDCHAR

STARTCHAR Icursive
ENCODING 73
SWIDTH 431 0
DWIDTH 8 0
BBX 10 15 -1 -2
BITMAP
03C0
0D80
1300
1B00
0300
0600
0600
0600
0C00
0C00
4C00
9800
9800
E000
C000
ENDCHAR

STARTCHAR Jcursive
ENCODING 74
SWIDTH 475 0
DWIDTH 9 0
BBX 11 17 -1 -4
BITMAP
03E0
04C0
08C0
0980
1180
1B00
1B00
1300
0600
0600
0600
4C00
4C00
8800
D000
E000
C000
ENDCHAR

STARTCHAR Kcursive
ENCODING 75
SWIDTH 676 0
DWIDTH 13 0
BBX 13 15 0 -2
BITMAP
0408
1C18
7830
1860
18C0
3180
3300
3600
7C00
6E00
6600
C700
C340
8380
0100
ENDCHAR

STARTCHAR Lcursive
ENCODING 76
SWIDTH 602 0
DWIDTH 12 0
BBX 14 15 -2 -2
BITMAP
0038
007C
00C8
0190
0320
0300
0600
0600
0C00
0C00
1808
3C10
6F70
C3C0
0180
ENDCHAR

STARTCHAR Mcursive
ENCODING 77
SWIDTH 896 0
DWIDTH 17 0
BBX 19 16 -3 -3
BITMAP
006020
01E0E0
0060C0
0060C0
00E1C0
00E2C0
0162C0
016480
026580
026980
246980
4471A0
4861C0
F04100
E00000
C00000
ENDCHAR

STARTCHAR Ncursive
ENCODING 78
SWIDTH 722 0
DWIDTH 14 0
BBX 17 16 -3 -3
BITMAP
008180
03C380
04C580
00C080
016100
016100
026100
026200
043200
043400
283400
483800
503000
E01000
E02000
400000
ENDCHAR

STARTCHAR Ocursive
ENCODING 79
SWIDTH 671 0
DWIDTH 13 0
BBX 13 14 0 -1
BITMAP
00C0
01F0
0BF0
1238
2438
6018
6018
C018
C010
E030
E020
70C0
7F80
1E00
ENDCHAR

STARTCHAR Pcursive
ENCODING 80
SWIDTH 593 0
DWIDTH 11 0
BBX 11 15 0 -2
BITMAP
0640
1CE0
2D60
0E60
0C60
1C60
18C0
18C0
7180
3E00
6000
6000
6000
F000
C000
ENDCHAR

STARTCHAR Qcursive
ENCODING 81
SWIDTH 676 0
DWIDTH 13 0
BBX 13 15 -1 -2
BITMAP
00F0
0338
0418
0818
1818
1010
3030
3020
3240
3C80
1900
0200
7C30
FF40
0780
ENDCHAR

STARTCHAR Rcursive
ENCODING 82
SWIDTH 662 0
DWIDTH 13 0
BBX 12 15 0 -2
BITMAP
0430
1CF0
2D30
0E30
0C60
1860
18C0
1F00
3E00
3600
2300
6300
63E0
C180
8100
ENDCHAR

STARTCHAR Scursive
ENCODING 83
SWIDTH 523 0
DWIDTH 10 0
BBX 11 14 -1 -1
BITMAP
01C0
07E0
0C60
1840
1080
1800
1E00
0F00
2380
4180
4180
C300
FE00
7800
ENDCHAR

STARTCHAR Tcursive
ENCODING 84
SWIDTH 650 0
DWIDTH 13 0
BBX 13 14 1 -1
BITMAP
3C38
7FF0
83C0
0600
0800
1800
3000
3000
7000
6040
6080
7300
3E00
1C00
ENDCHAR

STARTCHAR Ucursive
ENCODING 85
SWIDTH 699 0
DWIDTH 14 0
BBX 13 14 1 -1
BITMAP
0C08
1C30
7830
1830
1860
1860
30C0
30C0
31C0
6280
6580
69A0
F1C0
C180
ENDCHAR

STARTCHAR Vcursive
ENCODING 86
SWIDTH 569 0
DWIDTH 11 0
BBX 11 14 1 -1
BITMAP
1040
7040
B0C0
30E0
3080
3180
3100
2300
6200
6600
6400
7C00
7800
6000
ENDCHAR

STARTCHAR Wcursive
ENCODING 87
SWIDTH 792 0
DWIDTH 15 0
BBX 15 14 1 -1
BITMAP
1084
7384
B184
318E
3188
3188
6318
6310
6730
6720
6B60
73C0
6380
4200
ENDCHAR

STARTCHAR Xcursive
ENCODING 88
SWIDTH 722 0
DWIDTH 14 0
BBX 15 15 -2 -2
BITMAP
0102
0784
0B8C
018E
0194
01A0
01C0
0180
0180
2382
45C4
48C4
D0E8
E0F0
C060
ENDCHAR

STARTCHAR Ycursive
ENCODING 89
SWIDTH 625 0
DWIDTH 12 0
BBX 13 18 1 -5
BITMAP
1018
7030
B060
3060
30C0
30C0
3180
2180
6300
6700
6E00
7600
7400
6C00
0800
5000
7000
6000
ENDCHAR

STARTCHAR Zcursive
ENCODING 90
SWIDTH 588 0
DWIDTH 11 0
BBX 13 15 -1 -2
BITMAP
01D8
07F0
0C20
0040
0080
0100
0200
0200
0400
0800
1000
3820
7CC0
CFC0
0700
ENDCHAR

STARTCHAR union
ENCODING 91
SWIDTH 1000 0
DWIDTH 19 0
BBX 11 13 4 0
BITMAP
8020
8020
8020
8020
8020
8020
8020
8020
8020
4040
4040
3180
0E00
ENDCHAR

STARTCHAR intersection
ENCODING 92
SWIDTH 1000 0
DWIDTH 19 0
BBX 11 13 4 0
BITMAP
0E00
3180
4040
4040
8020
8020
8020
8020
8020
8020
8020
8020
8020
ENDCHAR

STARTCHAR unionmultiset
ENCODING 93
SWIDTH 1000 0
DWIDTH 19 0
BBX 11 13 4 0
BITMAP
8020
8020
8020
8420
8420
8420
BFA0
8420
8420
4440
4040
3180
0E00
ENDCHAR

STARTCHAR logicaland
ENCODING 94
SWIDTH 1000 0
DWIDTH 19 0
BBX 13 14 3 -2
BITMAP
0200
0200
0500
0500
0880
0880
1040
1040
2020
2020
4010
4010
8008
8008
ENDCHAR

STARTCHAR logicalor
ENCODING 95
SWIDTH 1000 0
DWIDTH 19 0
BBX 13 14 3 -2
BITMAP
8008
8008
4010
4010
2020
2020
1040
1040
0880
0880
0500
0500
0200
0200
ENDCHAR

STARTCHAR turnstileleft
ENCODING 96
SWIDTH 611 0
DWIDTH 12 0
BBX 10 14 1 -2
BITMAP
8000
8000
8000
8000
8000
8000
8000
FFC0
8000
8000
8000
8000
8000
8000
ENDCHAR

STARTCHAR turnstileright
ENCODING 97
SWIDTH 611 0
DWIDTH 12 0
BBX 10 14 1 -2
BITMAP
0040
0040
0040
0040
0040
0040
0040
FFC0
0040
0040
0040
0040
0040
0040
ENDCHAR

STARTCHAR bracketleftbt
ENCODING 98
SWIDTH 528 0
DWIDTH 10 0
BBX 5 19 4 -5
BITMAP
80
80
80
80
80
80
80
80
80
80
80
80
80
80
80
80
80
80
F8
ENDCHAR

STARTCHAR bracketrightbt
ENCODING 99
SWIDTH 528 0
DWIDTH 10 0
BBX 5 19 1 -5
BITMAP
08
08
08
08
08
08
08
08
08
08
08
08
08
08
08
08
08
08
F8
ENDCHAR

STARTCHAR bracketlefttp
ENCODING 100
SWIDTH 528 0
DWIDTH 10 0
BBX 5 19 4 -5
BITMAP
F8
80
80
80
80
80
80
80
80
80
80
80
80
80
80
80
80
80
80
ENDCHAR

STARTCHAR bracketrighttp
ENCODING 101
SWIDTH 528 0
DWIDTH 10 0
BBX 5 19 1 -5
BITMAP
F8
08
08
08
08
08
08
08
08
08
08
08
08
08
08
08
08
08
08
ENDCHAR

STARTCHAR braceleft
ENCODING 102
SWIDTH 500 0
DWIDTH 10 0
BBX 7 19 2 -5
BITMAP
06
0C
18
18
18
18
18
18
30
E0
30
18
18
18
18
18
18
0C
06
ENDCHAR

STARTCHAR braceright
ENCODING 103
SWIDTH 500 0
DWIDTH 10 0
BBX 7 19 1 -5
BITMAP
C0
60
30
30
30
30
30
30
18
0E
18
30
30
30
30
30
30
60
C0
ENDCHAR

STARTCHAR angleleft
ENCODING 104
SWIDTH 333 0
DWIDTH 6 0
BBX 5 19 1 -5
BITMAP
08
08
10
10
20
20
40
40
80
80
80
40
40
20
20
10
10
08
08
ENDCHAR

STARTCHAR angleright
ENCODING 105
SWIDTH 333 0
DWIDTH 6 0
BBX 5 19 1 -5
BITMAP
80
80
40
40
20
20
10
10
08
08
08
10
10
20
20
40
40
80
80
ENDCHAR

STARTCHAR bar
ENCODING 106
SWIDTH 602 0
DWIDTH 12 0
BBX 1 19 6 -5
BITMAP
80
80
80
80
80
80
80
80
80
80
80
80
80
80
80
80
80
80
80
ENDCHAR

STARTCHAR bardbl
ENCODING 107
SWIDTH 1000 0
DWIDTH 19 0
BBX 4 19 8 -5
BITMAP
90
90
90
90
90
90
90
90
90
90
90
90
90
90
90
90
90
90
90
ENDCHAR

STARTCHAR arrowupdown
ENCODING 108
SWIDTH 500 0
DWIDTH 10 0
BBX 7 19 2 -5
BITMAP
10
38
38
54
54
92
10
10
10
10
10
10
10
92
54
54
38
38
10
ENDCHAR

STARTCHAR arrowdblupdown
ENCODING 109
SWIDTH 500 0
DWIDTH 10 0
BBX 7 19 2 -5
BITMAP
10
38
6C
AA
28
28
28
28
28
28
28
28
28
28
28
AA
6C
38
10
ENDCHAR

STARTCHAR backslash
ENCODING 110
SWIDTH 500 0
DWIDTH 10 0
BBX 8 19 1 -5
BITMAP
80
80
40
40
20
20
20
10
10
08
08
08
04
04
02
02
02
01
01
ENDCHAR

STARTCHAR wreathproduct
ENCODING 111
SWIDTH 278 0
DWIDTH 5 0
BBX 3 11 1 -2
BITMAP
C0
20
20
20
60
40
C0
80
80
80
60
ENDCHAR

STARTCHAR radical
ENCODING 112
SWIDTH 1000 0
DWIDTH 19 0
BBX 16 18 3 -18
BITMAP
0001
0001
0002
0002
0004
0004
0008
0008
0010
3010
7020
9820
0C40
0C40
0680
0380
0300
0100
ENDCHAR

STARTCHAR coproduct
ENCODING 113
SWIDTH 768 0
DWIDTH 15 0
BBX 14 12 1 0
BITMAP
FCFC
3030
3030
3030
3030
3030
3030
3030
3030
3030
3870
FFFC
ENDCHAR

STARTCHAR gradient
ENCODING 114
SWIDTH 713 0
DWIDTH 14 0
BBX 14 13 0 -1
BITMAP
FFFC
6008
7010
3010
3820
1820
1C40
0C40
0E80
0680
0700
0300
0200
ENDCHAR

STARTCHAR integral
ENCODING 115
SWIDTH 274 0
DWIDTH 5 0
BBX 8 18 -1 -4
BITMAP
07
0B
08
08
18
18
18
18
18
18
18
18
18
18
10
10
D0
E0
ENDCHAR

STARTCHAR unionsqr
ENCODING 116
SWIDTH 1000 0
DWIDTH 19 0
BBX 12 12 4 0
BITMAP
8010
8010
8010
8010
8010
8010
8010
8010
8010
8010
8010
FFF0
ENDCHAR

STARTCHAR intersectsqr
ENCODING 117
SWIDTH 1000 0
DWIDTH 19 0
BBX 12 12 4 0
BITMAP
FFF0
8010
8010
8010
8010
8010
8010
8010
8010
8010
8010
8010
ENDCHAR

STARTCHAR reflsubsetsq
ENCODING 118
SWIDTH 1000 0
DWIDTH 19 0
BBX 12 15 4 -3
BITMAP
FFF0
8000
8000
8000
8000
8000
8000
8000
8000
8000
8000
FFF0
0000
0000
FFF0
ENDCHAR

STARTCHAR reflsupersetsq
ENCODING 119
SWIDTH 1000 0
DWIDTH 19 0
BBX 12 15 4 -3
BITMAP
FFF0
0010
0010
0010
0010
0010
0010
0010
0010
0010
0010
FFF0
0000
0000
FFF0
ENDCHAR

STARTCHAR section
ENCODING 120
SWIDTH 500 0
DWIDTH 10 0
BBX 7 18 2 -5
BITMAP
3C
66
C6
C0
E0
78
5C
8E
C6
E2
74
3C
0E
06
06
C6
CC
70
ENDCHAR

STARTCHAR dagger
ENCODING 121
SWIDTH 500 0
DWIDTH 10 0
BBX 8 17 1 -4
BITMAP
18
18
18
18
FF
18
18
18
18
18
18
18
18
18
18
18
18
ENDCHAR

STARTCHAR daggerdbl
ENCODING 122
SWIDTH 500 0
DWIDTH 10 0
BBX 8 17 1 -4
BITMAP
18
18
18
18
FF
18
18
18
18
18
18
FF
18
18
18
18
18
ENDCHAR

STARTCHAR paragraph
ENCODING 123
SWIDTH 500 0
DWIDTH 10 0
BBX 9 17 0 -4
BITMAP
3F80
7900
F900
F900
F900
F900
7900
3900
0900
0900
0900
0900
0900
0900
0900
0900
0900
ENDCHAR

STARTCHAR clubsuit
ENCODING 124
SWIDTH 1150 0
DWIDTH 22 0
BBX 18 17 2 -3
BITMAP
01E000
03F000
07F800
07F800
07F800
03F000
39E700
7CCF80
FEDFC0
FFFFC0
FEDFC0
7CCF80
38C700
00C000
00C000
01E000
03F000
ENDCHAR

STARTCHAR diamondsuit
ENCODING 125
SWIDTH 1148 0
DWIDTH 22 0
BBX 17 17 3 -3
BITMAP
008000
014000
022000
041000
080800
100400
200200
400100
800080
400100
200200
100400
080800
041000
022000
014000
008000
ENDCHAR

STARTCHAR heartsuit
ENCODING 126
SWIDTH 1147 0
DWIDTH 22 0
BBX 19 17 2 -3
BITMAP
1E0F00
211080
40A040
804020
800020
800020
800020
400040
400040
200080
100100
080200
040400
020800
011000
00A000
004000
ENDCHAR

STARTCHAR spadesuit
ENCODING 127
SWIDTH 1148 0
DWIDTH 22 0
BBX 16 17 3 -3
BITMAP
0180
0180
03C0
07E0
0FF0
1FF8
7FFE
7FFE
FFFF
FFFF
FFFF
FDBF
7DBE
399C
0180
03C0
07E0
ENDCHAR

STARTCHAR minus
ENCODING 160
SWIDTH 833 0
DWIDTH 16 0
BBX 11 1 3 5
BITMAP
FFE0
ENDCHAR

STARTCHAR dotmath
ENCODING 161
SWIDTH 572 0
DWIDTH 11 0
BBX 2 2 5 5
BITMAP
C0
C0
ENDCHAR

STARTCHAR multiply
ENCODING 162
SWIDTH 833 0
DWIDTH 16 0
BBX 10 10 3 0
BITMAP
8040
4080
2100
1200
0C00
0C00
1200
2100
4080
8040
ENDCHAR

STARTCHAR asteriskmath
ENCODING 163
SWIDTH 1000 0
DWIDTH 19 0
BBX 7 8 5 1
BITMAP
10
92
54
28
28
54
92
10
ENDCHAR

STARTCHAR divide
ENCODING 164
SWIDTH 833 0
DWIDTH 16 0
BBX 10 9 3 1
BITMAP
0C00
0C00
0000
0000
FFC0
0000
0000
0C00
0C00
ENDCHAR

STARTCHAR diamondop
ENCODING 165
SWIDTH 500 0
DWIDTH 10 0
BBX 9 10 1 0
BITMAP
0800
1400
2200
4100
8080
8080
4100
2200
1400
0800
ENDCHAR

STARTCHAR plusminus
ENCODING 166
SWIDTH 833 0
DWIDTH 16 0
BBX 11 12 3 -1
BITMAP
0400
0400
0400
0400
0400
FFE0
0400
0400
0400
0400
0400
FFE0
ENDCHAR

STARTCHAR minusplus
ENCODING 167
SWIDTH 833 0
DWIDTH 16 0
BBX 11 12 3 -2
BITMAP
FFE0
0400
0400
0400
0400
0400
FFE0
0400
0400
0400
0400
0400
ENDCHAR

STARTCHAR circleplus
ENCODING 168
SWIDTH 1000 0
DWIDTH 19 0
BBX 15 15 2 -2
BITMAP
07C0
1930
2108
4104
4104
8102
8102
FFFE
8102
8102
4104
4104
2108
1930
07C0
ENDCHAR

STARTCHAR circleminus
ENCODING 169
SWIDTH 1000 0
DWIDTH 19 0
BBX 15 15 2 -2
BITMAP
07C0
1830
2008
4004
4004
8002
8002
FFFE
8002
8002
4004
4004
2008
1830
07C0
ENDCHAR

STARTCHAR circlemultiply
ENCODING 170
SWIDTH 1000 0
DWIDTH 19 0
BBX 15 15 2 -2
BITMAP
07C0
1830
2008
5014
4824
8442
8282
8102
8282
8442
4824
5014
2008
1830
07C0
ENDCHAR

STARTCHAR circledivide
ENCODING 171
SWIDTH 1000 0
DWIDTH 19 0
BBX 15 15 2 -2
BITMAP
07C0
1830
2008
4014
4024
8042
8082
8102
8202
8402
4804
5004
2008
1830
07C0
ENDCHAR

STARTCHAR circledot
ENCODING 172
SWIDTH 1000 0
DWIDTH 19 0
BBX 15 15 2 -2
BITMAP
07C0
1830
2008
4004
4004
8002
8102
8382
8102
8002
4004
4004
2008
1830
07C0
ENDCHAR

STARTCHAR overlaycircle
ENCODING 173
SWIDTH 1000 0
DWIDTH 19 0
BBX 19 19 0 -5
BITMAP
01F000
060C00
180300
200080
200080
400040
400040
800020
800020
800020
800020
800020
400040
400040
200080
200080
180300
060C00
01F000
ENDCHAR

STARTCHAR circleop
ENCODING 174
SWIDTH 500 0
DWIDTH 10 0
BBX 8 8 1 0
BITMAP
3C
42
81
81
81
81
42
3C
ENDCHAR

STARTCHAR bullet
ENCODING 175
SWIDTH 500 0
DWIDTH 10 0
BBX 8 8 1 0
BITMAP
3C
7E
FF
FF
FF
FF
7E
3C
ENDCHAR

STARTCHAR hardyequiv
ENCODING 176
SWIDTH 1000 0
DWIDTH 19 0
BBX 11 7 4 2
BITMAP
8020
60C0
1F00
0000
1F00
60C0
8020
ENDCHAR

STARTCHAR equivalence
ENCODING 177
SWIDTH 1000 0
DWIDTH 19 0
BBX 11 7 4 2
BITMAP
FFE0
0000
0000
FFE0
0000
0000
FFE0
ENDCHAR

STARTCHAR reflexsubset
ENCODING 178
SWIDTH 1000 0
DWIDTH 19 0
BBX 13 14 3 -3
BITMAP
1FF8
2000
4000
4000
8000
8000
8000
4000
4000
2000
1FF8
0000
0000
FFF8
ENDCHAR

STARTCHAR reflexsuperset
ENCODING 179
SWIDTH 1000 0
DWIDTH 19 0
BBX 13 14 3 -3
BITMAP
FF80
0060
0010
0010
0008
0008
0008
0010
0010
0060
FF80
0000
0000
FFF8
ENDCHAR

STARTCHAR lessequal
ENCODING 180
SWIDTH 1000 0
DWIDTH 19 0
BBX 11 11 4 0
BITMAP
0060
0180
0600
1800
E000
1800
0600
0180
0060
0000
FFE0
ENDCHAR

STARTCHAR greaterequal
ENCODING 181
SWIDTH 1000 0
DWIDTH 19 0
BBX 11 11 4 0
BITMAP
C000
3000
0C00
0300
00E0
0300
0C00
3000
C000
0000
FFE0
ENDCHAR

STARTCHAR precedesequal
ENCODING 182
SWIDTH 1000 0
DWIDTH 19 0
BBX 11 12 4 -1
BITMAP
0020
0020
0040
0180
0E00
F000
0E00
0180
0040
0020
0020
FFE0
ENDCHAR

STARTCHAR followsequal
ENCODING 183
SWIDTH 1000 0
DWIDTH 19 0
BBX 11 12 4 -1
BITMAP
8000
8000
4000
3000
0E00
01E0
0E00
3000
4000
8000
8000
FFE0
ENDCHAR

STARTCHAR similar
ENCODING 184
SWIDTH 1000 0
DWIDTH 19 0
BBX 12 2 4 4
BITMAP
7C10
83E0
ENDCHAR

STARTCHAR approxequal
ENCODING 185
SWIDTH 1000 0
DWIDTH 19 0
BBX 12 5 4 3
BITMAP
7C10
83E0
0000
7C10
83E0
ENDCHAR

STARTCHAR propersubset
ENCODING 186
SWIDTH 1000 0
DWIDTH 19 0
BBX 13 11 3 0
BITMAP
0FF8
3000
4000
4000
8000
8000
8000
4000
4000
3000
0FF8
ENDCHAR

STARTCHAR propersuperset
ENCODING 187
SWIDTH 1000 0
DWIDTH 19 0
BBX 13 11 3 0
BITMAP
FF80
0060
0010
0010
0008
0008
0008
0010
0010
0060
FF80
ENDCHAR

STARTCHAR muchless
ENCODING 188
SWIDTH 1000 0
DWIDTH 19 0
BBX 17 13 1 0
BITMAP
001080
006300
018C00
063000
18C000
630000
840000
630000
18C000
063000
018C00
006300
001080
ENDCHAR

STARTCHAR muchgreater
ENCODING 189
SWIDTH 1000 0
DWIDTH 19 0
BBX 17 13 1 0
BITMAP
840000
630000
18C000
063000
018C00
006300
001080
006300
018C00
063000
18C000
630000
840000
ENDCHAR

STARTCHAR precedes
ENCODING 190
SWIDTH 1000 0
DWIDTH 19 0
BBX 11 11 4 -1
BITMAP
0020
0020
0040
0180
0E00
F000
0E00
0180
0040
0020
0020
ENDCHAR

STARTCHAR follows
ENCODING 191
SWIDTH 1000 0
DWIDTH 19 0
BBX 11 11 4 -1
BITMAP
8000
8000
4000
3000
0E00
01E0
0E00
3000
4000
8000
8000
ENDCHAR
ENDFONT
